<?xml version="1.0" encoding="utf-8"?>
<!-- Generator: Adobe Illustrator 28.0.0, SVG Export Plug-In . SVG Version: 6.00 Build 0)  -->
<svg version="1.1" id="Navbar" xmlns="http://www.w3.org/2000/svg" xmlns:xlink="http://www.w3.org/1999/xlink" x="0px" y="0px"
	 viewBox="0 0 988 300" style="enable-background:new 0 0 988 300;" xml:space="preserve">
<style type="text/css">
	.st0{fill:url(#SVGID_1_);}
	.st1{fill:url(#SVGID_00000005954299914116370200000002782481916195971006_);}
	.st2{fill:url(#SVGID_00000147212474954528980390000004676488398198707354_);}
	.st3{fill:url(#SVGID_00000058559946508482135840000001363712062110665400_);}
	.st4{fill:url(#SVGID_00000035508522451852711050000006779147252777809064_);}
	.st5{fill:url(#SVGID_00000067231857188000015270000015389333829393791162_);}
	.st6{fill:url(#SVGID_00000114060407404220405720000006328540936481077400_);}
	.st7{fill:url(#SVGID_00000176723498120835487070000009863651877059822241_);}
	.st8{fill:url(#SVGID_00000152950812588082092260000003303215616767189925_);}
	.st9{fill:url(#SVGID_00000052087233573352821160000017877658423751831461_);}
	.st10{fill:url(#SVGID_00000145746049886456268820000010598145591974808705_);}
	.st11{fill:url(#SVGID_00000018957395010425609590000006709490202234017421_);}
	.st12{fill:url(#SVGID_00000059310052180554012220000000047703119327267204_);}
	.st13{fill:url(#SVGID_00000119096977853143390970000000211284369038650270_);}
	.st14{fill:url(#SVGID_00000050627434226041857050000017836544553900925072_);}
	.st15{fill:url(#SVGID_00000117635945737442710000000012173017711522007178_);}
	.st16{fill:url(#SVGID_00000084501406193453442260000011863163022013670794_);}
	.st17{fill:url(#SVGID_00000139973113438974671740000000654599498088630712_);}
	.st18{fill:url(#SVGID_00000080917056593954961600000011888684272516371628_);}
	.st19{fill:url(#SVGID_00000119831691422625713170000010621034874059466645_);}
	.st20{fill:url(#SVGID_00000092428235589641808520000011744383207081709472_);}
	.st21{fill:url(#SVGID_00000148642022659476353740000006296976873218583961_);}
	.st22{fill:url(#SVGID_00000144304600383182689980000018327709060332974512_);}
	.st23{fill:url(#SVGID_00000029017110470381490550000011728631708418402751_);}
	.st24{fill:url(#SVGID_00000095330796996463333700000015071368595932824704_);}
	.st25{fill:url(#SVGID_00000029035242780555313900000004553427254379084208_);}
	.st26{fill:url(#SVGID_00000034793261806618013990000015762249013164968634_);}
	.st27{fill:url(#SVGID_00000083074713642613108730000009624872472914734516_);}
	.st28{fill:url(#SVGID_00000173855717541737177890000001803764086059551669_);}
	.st29{fill:url(#SVGID_00000138575725848681147570000011294293736104205984_);}
	.st30{fill:#FFCA05;}
	.st31{fill:url(#SVGID_00000156565401505382337670000007999331167452565435_);}
	.st32{fill:#F37A20;}
	.st33{fill:#FFFFFF;}
</style>
<g>
	<linearGradient id="SVGID_1_" gradientUnits="userSpaceOnUse" x1="212.1999" y1="186.7001" x2="234.8553" y2="186.7001">
		<stop  offset="0.137" style="stop-color:#FFC905"/>
		<stop  offset="0.8675" style="stop-color:#F37A20"/>
	</linearGradient>
	<rect x="229.2" y="136.7" class="st0" width="22.7" height="99.9"/>
	<g>
		
			<linearGradient id="SVGID_00000062151998811051008900000004388281453990106292_" gradientUnits="userSpaceOnUse" x1="29.5003" y1="149.9274" x2="77.7978" y2="149.9274">
			<stop  offset="0.137" style="stop-color:#FFC905"/>
			<stop  offset="0.8675" style="stop-color:#F37A20"/>
		</linearGradient>
		
			<rect x="29.5" y="11.8" style="fill:url(#SVGID_00000062151998811051008900000004388281453990106292_);" width="22.7" height="276.3"/>
		
			<linearGradient id="SVGID_00000074432669886802005480000013623460176841463231_" gradientUnits="userSpaceOnUse" x1="7.6492" y1="23.13" x2="314.9742" y2="23.13">
			<stop  offset="0.137" style="stop-color:#FFC905"/>
			<stop  offset="0.8675" style="stop-color:#F37A20"/>
		</linearGradient>
		<path style="fill:url(#SVGID_00000074432669886802005480000013623460176841463231_);" d="M256.6,34.5c-78.8,0-157.7,0-236.5,0
			c-4.2,0-8.3,0-12.5,0c0-4.3,0-8.5,0-12.8c0-3.3,0-6.6,0-9.9c83,0.1,165.9,0.1,248.9,0.2C256.6,19.5,256.6,27,256.6,34.5z"/>
	</g>
	
		<linearGradient id="SVGID_00000050626508273810942830000002024979671564653475_" gradientUnits="userSpaceOnUse" x1="75.7097" y1="276.7247" x2="305.7505" y2="276.7247">
		<stop  offset="0.137" style="stop-color:#FFC905"/>
		<stop  offset="0.8675" style="stop-color:#F37A20"/>
	</linearGradient>
	<path style="fill:url(#SVGID_00000050626508273810942830000002024979671564653475_);" d="M305.8,265.4v22.7H75.9
		c-0.1-7.5-0.1-15-0.2-22.4C152.4,265.5,229.1,265.5,305.8,265.4z"/>
	
		<linearGradient id="SVGID_00000019678403074644507570000009414998424410949264_" gradientUnits="userSpaceOnUse" x1="251.7489" y1="164.3394" x2="274.4043" y2="164.3394">
		<stop  offset="0.137" style="stop-color:#FFC905"/>
		<stop  offset="0.8675" style="stop-color:#F37A20"/>
	</linearGradient>
	
		<rect x="284.7" y="40.6" style="fill:url(#SVGID_00000019678403074644507570000009414998424410949264_);" width="22.7" height="247.4"/>
	
		<linearGradient id="SVGID_00000131365806612200324020000017931814604361172625_" gradientUnits="userSpaceOnUse" x1="85.0198" y1="74.0882" x2="251.8068" y2="74.0882">
		<stop  offset="7.768408e-03" style="stop-color:#FFC905"/>
		<stop  offset="0.1364" style="stop-color:#FDBB0A"/>
		<stop  offset="0.624" style="stop-color:#F68C1A"/>
		<stop  offset="0.8675" style="stop-color:#F37A20"/>
	</linearGradient>
	<path style="fill:url(#SVGID_00000131365806612200324020000017931814604361172625_);" d="M251.8,62.4c-0.1,7.8-0.2,15.6-0.3,23.4
		c-55.5-0.2-111-0.5-166.5-0.7c0-7.6,0-15.1,0-22.7H251.8z"/>
	
		<linearGradient id="SVGID_00000176749668268184969670000006997483426202933641_" gradientUnits="userSpaceOnUse" x1="85.0198" y1="138.874" x2="166.5077" y2="138.874">
		<stop  offset="0.137" style="stop-color:#FFC905"/>
		<stop  offset="0.8675" style="stop-color:#F37A20"/>
	</linearGradient>
	
		<rect x="85" y="62.4" style="fill:url(#SVGID_00000176749668268184969670000006997483426202933641_);" width="22.7" height="152.9"/>
	
		<linearGradient id="SVGID_00000054979148504881436540000008486994894757532296_" gradientUnits="userSpaceOnUse" x1="164.7116" y1="148.0614" x2="251.8068" y2="148.0614">
		<stop  offset="0.137" style="stop-color:#FFC905"/>
		<stop  offset="0.7259" style="stop-color:#F37A20"/>
	</linearGradient>
	<polygon style="fill:url(#SVGID_00000054979148504881436540000008486994894757532296_);" points="251.8,136.7 251.8,159.4 
		164.7,159.4 164.7,136.7 	"/>
	
		<linearGradient id="SVGID_00000017510648956512705380000014064258416141295504_" gradientUnits="userSpaceOnUse" x1="85.0198" y1="225.3388" x2="251.8068" y2="225.3388">
		<stop  offset="0.137" style="stop-color:#FFC905"/>
		<stop  offset="0.8675" style="stop-color:#F37A20"/>
	</linearGradient>
	<polygon style="fill:url(#SVGID_00000017510648956512705380000014064258416141295504_);" points="251.8,214 251.8,236.7 85,236.7 
		85,214 	"/>
	<g>
		<image style="overflow:visible;" width="73" height="31" xlink:href="5CE0D4289584886F.png"  transform="matrix(1 0 0 1 52 258)">
		</image>
	</g>
	
		<linearGradient id="SVGID_00000028318548681343714520000001552487232900277926_" gradientUnits="userSpaceOnUse" x1="284.6708" y1="31.0331" x2="291.5201" y2="31.0331">
		<stop  offset="0" style="stop-color:#F4CF20"/>
		<stop  offset="0.1825" style="stop-color:#FDE995"/>
		<stop  offset="0.6484" style="stop-color:#F4CF20"/>
		<stop  offset="0.999" style="stop-color:#F5891F"/>
	</linearGradient>
	<circle style="fill:url(#SVGID_00000028318548681343714520000001552487232900277926_);" cx="288.1" cy="31" r="3.4"/>
	
		<linearGradient id="SVGID_00000141440361677360747080000005205173640936224689_" gradientUnits="userSpaceOnUse" x1="292.5739" y1="31.0331" x2="299.4232" y2="31.0331">
		<stop  offset="0" style="stop-color:#F4CF20"/>
		<stop  offset="0.1825" style="stop-color:#FDE995"/>
		<stop  offset="0.6484" style="stop-color:#F4CF20"/>
		<stop  offset="0.999" style="stop-color:#F5891F"/>
	</linearGradient>
	<circle style="fill:url(#SVGID_00000141440361677360747080000005205173640936224689_);" cx="296" cy="31" r="3.4"/>
	
		<linearGradient id="SVGID_00000070829827408037560140000016859927271741746863_" gradientUnits="userSpaceOnUse" x1="300.477" y1="31.0331" x2="307.3263" y2="31.0331">
		<stop  offset="0" style="stop-color:#F4CF20"/>
		<stop  offset="0.1825" style="stop-color:#FDE995"/>
		<stop  offset="0.6484" style="stop-color:#F4CF20"/>
		<stop  offset="0.999" style="stop-color:#F5891F"/>
	</linearGradient>
	<circle style="fill:url(#SVGID_00000070829827408037560140000016859927271741746863_);" cx="303.9" cy="31" r="3.4"/>
	
		<linearGradient id="SVGID_00000039855426162791646740000005181720803599532454_" gradientUnits="userSpaceOnUse" x1="284.6708" y1="23.13" x2="291.5201" y2="23.13">
		<stop  offset="0" style="stop-color:#F4CF20"/>
		<stop  offset="0.1825" style="stop-color:#FDE995"/>
		<stop  offset="0.6484" style="stop-color:#F4CF20"/>
		<stop  offset="0.999" style="stop-color:#F5891F"/>
	</linearGradient>
	<circle style="fill:url(#SVGID_00000039855426162791646740000005181720803599532454_);" cx="288.1" cy="23.1" r="3.4"/>
	
		<linearGradient id="SVGID_00000073718286605389014680000005275528548547780240_" gradientUnits="userSpaceOnUse" x1="292.5739" y1="23.13" x2="299.4232" y2="23.13">
		<stop  offset="0" style="stop-color:#F4CF20"/>
		<stop  offset="0.1825" style="stop-color:#FDE995"/>
		<stop  offset="0.6484" style="stop-color:#F4CF20"/>
		<stop  offset="0.999" style="stop-color:#F5891F"/>
	</linearGradient>
	<circle style="fill:url(#SVGID_00000073718286605389014680000005275528548547780240_);" cx="296" cy="23.1" r="3.4"/>
	
		<linearGradient id="SVGID_00000130638685669367469810000012644276100021000833_" gradientUnits="userSpaceOnUse" x1="300.477" y1="23.13" x2="307.3263" y2="23.13">
		<stop  offset="0" style="stop-color:#F4CF20"/>
		<stop  offset="0.1825" style="stop-color:#FDE995"/>
		<stop  offset="0.6484" style="stop-color:#F4CF20"/>
		<stop  offset="0.999" style="stop-color:#F5891F"/>
	</linearGradient>
	<circle style="fill:url(#SVGID_00000130638685669367469810000012644276100021000833_);" cx="303.9" cy="23.1" r="3.4"/>
	
		<linearGradient id="SVGID_00000049927450232132524700000010708979846297552562_" gradientUnits="userSpaceOnUse" x1="284.6708" y1="15.227" x2="291.5201" y2="15.227">
		<stop  offset="0" style="stop-color:#F4CF20"/>
		<stop  offset="0.1825" style="stop-color:#FDE995"/>
		<stop  offset="0.6484" style="stop-color:#F4CF20"/>
		<stop  offset="0.999" style="stop-color:#F5891F"/>
	</linearGradient>
	<circle style="fill:url(#SVGID_00000049927450232132524700000010708979846297552562_);" cx="288.1" cy="15.2" r="3.4"/>
	
		<linearGradient id="SVGID_00000083070849033246256280000001831728449690087308_" gradientUnits="userSpaceOnUse" x1="292.5739" y1="15.227" x2="299.4232" y2="15.227">
		<stop  offset="0" style="stop-color:#F4CF20"/>
		<stop  offset="0.1825" style="stop-color:#FDE995"/>
		<stop  offset="0.6484" style="stop-color:#F4CF20"/>
		<stop  offset="0.999" style="stop-color:#F5891F"/>
	</linearGradient>
	<circle style="fill:url(#SVGID_00000083070849033246256280000001831728449690087308_);" cx="296" cy="15.2" r="3.4"/>
	
		<linearGradient id="SVGID_00000010989988012355936680000000071177046368144772_" gradientUnits="userSpaceOnUse" x1="300.477" y1="15.227" x2="307.3263" y2="15.227">
		<stop  offset="0" style="stop-color:#F4CF20"/>
		<stop  offset="0.1825" style="stop-color:#FDE995"/>
		<stop  offset="0.6484" style="stop-color:#F4CF20"/>
		<stop  offset="0.999" style="stop-color:#F5891F"/>
	</linearGradient>
	<circle style="fill:url(#SVGID_00000010989988012355936680000000071177046368144772_);" cx="303.9" cy="15.2" r="3.4"/>
	
		<linearGradient id="SVGID_00000106114723315035861280000001043973949400888196_" gradientUnits="userSpaceOnUse" x1="265.2264" y1="47.1572" x2="278.2884" y2="47.1572">
		<stop  offset="0" style="stop-color:#F4CF20"/>
		<stop  offset="0.1825" style="stop-color:#FDE995"/>
		<stop  offset="0.6484" style="stop-color:#F4CF20"/>
		<stop  offset="0.999" style="stop-color:#F5891F"/>
	</linearGradient>
	<circle style="fill:url(#SVGID_00000106114723315035861280000001043973949400888196_);" cx="271.8" cy="47.2" r="6.5"/>
	
		<linearGradient id="SVGID_00000155836304701221668530000009691443183904513667_" gradientUnits="userSpaceOnUse" x1="265.2264" y1="92.3948" x2="278.2884" y2="92.3948">
		<stop  offset="0" style="stop-color:#F4CF20"/>
		<stop  offset="0.1825" style="stop-color:#FDE995"/>
		<stop  offset="0.6484" style="stop-color:#F4CF20"/>
		<stop  offset="0.999" style="stop-color:#F5891F"/>
	</linearGradient>
	<circle style="fill:url(#SVGID_00000155836304701221668530000009691443183904513667_);" cx="271.8" cy="92.4" r="6.5"/>
	
		<linearGradient id="SVGID_00000082354620336161311190000006984721141234722699_" gradientUnits="userSpaceOnUse" x1="265.2264" y1="143.2647" x2="278.2884" y2="143.2647">
		<stop  offset="0" style="stop-color:#F4CF20"/>
		<stop  offset="0.1825" style="stop-color:#FDE995"/>
		<stop  offset="0.6484" style="stop-color:#F4CF20"/>
		<stop  offset="0.999" style="stop-color:#F5891F"/>
	</linearGradient>
	<circle style="fill:url(#SVGID_00000082354620336161311190000006984721141234722699_);" cx="271.8" cy="143.3" r="6.5"/>
	
		<linearGradient id="SVGID_00000027587194813488944090000016340231833336620437_" gradientUnits="userSpaceOnUse" x1="265.3183" y1="194.2752" x2="278.3802" y2="194.2752">
		<stop  offset="0" style="stop-color:#F4CF20"/>
		<stop  offset="0.1825" style="stop-color:#FDE995"/>
		<stop  offset="0.6484" style="stop-color:#F4CF20"/>
		<stop  offset="0.999" style="stop-color:#F5891F"/>
	</linearGradient>
	<circle style="fill:url(#SVGID_00000027587194813488944090000016340231833336620437_);" cx="271.8" cy="194.3" r="6.5"/>
	
		<linearGradient id="SVGID_00000030488687847322373520000005693020629574088371_" gradientUnits="userSpaceOnUse" x1="265.2264" y1="251.0438" x2="278.2884" y2="251.0438">
		<stop  offset="0" style="stop-color:#F4CF20"/>
		<stop  offset="0.1825" style="stop-color:#FDE995"/>
		<stop  offset="0.6484" style="stop-color:#F4CF20"/>
		<stop  offset="0.999" style="stop-color:#F5891F"/>
	</linearGradient>
	<circle style="fill:url(#SVGID_00000030488687847322373520000005693020629574088371_);" cx="271.8" cy="251" r="6.5"/>
	
		<linearGradient id="SVGID_00000011727558698941757730000000562608688085686709_" gradientUnits="userSpaceOnUse" x1="225.7997" y1="251.0438" x2="238.8616" y2="251.0438">
		<stop  offset="0" style="stop-color:#F4CF20"/>
		<stop  offset="0.1825" style="stop-color:#FDE995"/>
		<stop  offset="0.6484" style="stop-color:#F4CF20"/>
		<stop  offset="0.999" style="stop-color:#F5891F"/>
	</linearGradient>
	<circle style="fill:url(#SVGID_00000011727558698941757730000000562608688085686709_);" cx="232.3" cy="251" r="6.5"/>
	
		<linearGradient id="SVGID_00000150079000669663584380000014626663732175091856_" gradientUnits="userSpaceOnUse" x1="178.229" y1="251.0438" x2="191.2909" y2="251.0438">
		<stop  offset="0" style="stop-color:#F4CF20"/>
		<stop  offset="0.1825" style="stop-color:#FDE995"/>
		<stop  offset="0.6484" style="stop-color:#F4CF20"/>
		<stop  offset="0.999" style="stop-color:#F5891F"/>
	</linearGradient>
	<circle style="fill:url(#SVGID_00000150079000669663584380000014626663732175091856_);" cx="184.8" cy="251" r="6.5"/>
	
		<linearGradient id="SVGID_00000176025578340943285610000002198016620054082212_" gradientUnits="userSpaceOnUse" x1="132.6224" y1="251.0438" x2="145.6842" y2="251.0438">
		<stop  offset="0" style="stop-color:#F4CF20"/>
		<stop  offset="0.1825" style="stop-color:#FDE995"/>
		<stop  offset="0.6484" style="stop-color:#F4CF20"/>
		<stop  offset="0.999" style="stop-color:#F5891F"/>
	</linearGradient>
	<circle style="fill:url(#SVGID_00000176025578340943285610000002198016620054082212_);" cx="139.2" cy="251" r="6.5"/>
	<image style="overflow:visible;" width="70" height="30" xlink:href="5CE0D4289584886A.png"  transform="matrix(1 0 0 1 53 259)">
	</image>
	
		<linearGradient id="SVGID_00000013184388091931281930000001955478860939462325_" gradientUnits="userSpaceOnUse" x1="60.2721" y1="245.501" x2="66.5595" y2="245.501">
		<stop  offset="0" style="stop-color:#F4CF20"/>
		<stop  offset="0.1825" style="stop-color:#FDE995"/>
		<stop  offset="0.6484" style="stop-color:#F4CF20"/>
		<stop  offset="0.999" style="stop-color:#F5891F"/>
	</linearGradient>
	<path style="fill:url(#SVGID_00000013184388091931281930000001955478860939462325_);" d="M64,243.5c2.4,5.5,2,10.1,2.2,10.1
		c0.2,0,1-4.9-1.2-10c-1.7-3.9-4.6-6.4-4.7-6.3C60.1,237.4,62.3,239.7,64,243.5z"/>
	
		<linearGradient id="SVGID_00000155116163105048313720000006598503297879302801_" gradientUnits="userSpaceOnUse" x1="112.036" y1="251.5598" x2="115.814" y2="251.5598">
		<stop  offset="0" style="stop-color:#F4CF20"/>
		<stop  offset="0.1825" style="stop-color:#FDE995"/>
		<stop  offset="0.6484" style="stop-color:#F4CF20"/>
		<stop  offset="0.999" style="stop-color:#F5891F"/>
	</linearGradient>
	<path style="fill:url(#SVGID_00000155116163105048313720000006598503297879302801_);" d="M113.5,259.8c-0.3,0-2-3.8-1.4-8.4
		c0.6-4.8,3.4-8.3,3.6-8.2c0.2,0.1-1.9,3.2-2.5,8.2C112.6,256.3,113.8,259.8,113.5,259.8z"/>
	
		<linearGradient id="SVGID_00000163760409532959911890000005744231343804907392_" gradientUnits="userSpaceOnUse" x1="-66.9629" y1="662.4999" x2="-63.7869" y2="662.4999" gradientTransform="matrix(0.9866 0.1632 -0.1632 0.9866 284.2878 -395.0348)">
		<stop  offset="0" style="stop-color:#F4CF20"/>
		<stop  offset="0.1825" style="stop-color:#FDE995"/>
		<stop  offset="0.6484" style="stop-color:#F4CF20"/>
		<stop  offset="0.999" style="stop-color:#F5891F"/>
	</linearGradient>
	<path style="fill:url(#SVGID_00000163760409532959911890000005744231343804907392_);" d="M110.2,254.7c-0.2,0-1.1-3.4,0-7.2
		c1.2-3.9,4-6.4,4.1-6.3c0.2,0.1-2,2.4-3.2,6.4C110,251.7,110.4,254.7,110.2,254.7z"/>
	
		<linearGradient id="SVGID_00000101101788289369055860000014052616893438036621_" gradientUnits="userSpaceOnUse" x1="55.3912" y1="248.6955" x2="64.1345" y2="248.6955">
		<stop  offset="0" style="stop-color:#F4CF20"/>
		<stop  offset="0.1825" style="stop-color:#FDE995"/>
		<stop  offset="0.6484" style="stop-color:#F4CF20"/>
		<stop  offset="0.999" style="stop-color:#F5891F"/>
	</linearGradient>
	<path style="fill:url(#SVGID_00000101101788289369055860000014052616893438036621_);" d="M60.6,246c3.4,7.7,2.8,14.1,3.1,14.1
		c0.3,0,1.4-6.9-1.7-13.9c-2.4-5.5-6.4-9-6.6-8.8C55.2,237.5,58.3,240.6,60.6,246z"/>
</g>
<g>
	<path class="st30" d="M497.1,229c-15.2,8.5-30.1,12.8-49.3,12.8c-44.8,0-75.3-29.4-75.3-76.4c0-45.6,29-75.9,77.5-75.9
		c15.2,0,30.2,3.3,42.8,10.1l0.9,33.6h-16.2L470.3,99l14.8,3.4v11.7c-11-9-20.8-12.6-31.4-12.6c-25.2,0-45.9,20.7-45.9,63.8
		c0,43.1,19.6,64.2,46,64.2c9.9,0,16.8-2.6,26.9-8l-15.1,13.2v-15.8c0-17.5-0.2-34.2-0.7-51.8h32.8c-0.4,17.3-0.7,34.5-0.7,52.5V229
		z M444.8,178.4v-11.1h64.6v11.1l-25.3,3.2h-12.1L444.8,178.4z"/>
	<path class="st30" d="M660.6,165.6c0,49.9-33.2,76.1-68.9,76.1c-35.7,0-69-25.4-69-76.1c0-49.9,33.5-76.1,69-76.1
		C627.2,89.5,660.6,114.9,660.6,165.6z M591.7,229.5c24,0,33.6-28.3,33.6-63.8c0-35.4-9.6-64-33.6-64s-33.7,28.5-33.7,64
		C558.1,201.2,567.7,229.5,591.7,229.5z"/>
	
		<linearGradient id="SVGID_00000080172415041453820670000005357672876741433262_" gradientUnits="userSpaceOnUse" x1="672.6806" y1="165.6421" x2="787.2653" y2="165.6421">
		<stop  offset="0.137" style="stop-color:#FFC905"/>
		<stop  offset="0.7259" style="stop-color:#F37A20"/>
	</linearGradient>
	<path style="fill:url(#SVGID_00000080172415041453820670000005357672876741433262_);" d="M672.7,104.5V93.4h69.8v11.1l-31.5,3.3
		h-7.2L672.7,104.5z M706.9,223.5v14.4h-34.2v-11.1l31.1-3.3H706.9z M689.7,93.4h34.3c-0.7,22.3-0.7,45.1-0.7,67.9v12.4
		c0,19.1,0,41.9,0.7,64.2h-34.3c0.7-22.3,0.7-45.1,0.7-64.3v-12.3C690.4,138.5,690.4,115.8,689.7,93.4z M787.3,195.4l-2.2,42.5
		h-78.2v-12.2h70.8L762,237.9l8.6-42.5H787.3z"/>
	<path class="st32" d="M798.6,104.5V93.4h34.2v14.4h-3.2L798.6,104.5z M832.8,223.5v14.4h-34.2v-11.1l31.1-3.3H832.8z M816.3,161.3
		c0-22.6,0-45.3-0.7-67.9H850c-0.7,22.1-0.7,44.9-0.7,67.9v7.5c0,23.8,0,46.6,0.7,69.2h-34.3c0.7-22.1,0.7-44.9,0.7-69V161.3z
		 M832.8,225.8h26.5c27.1,0,43.4-21.9,43.4-60.2c0-39.2-16.2-60.2-42.6-60.2h-27.3v-12h30.7c45.5,0,73.8,26.9,73.8,72
		c0,46.1-31.2,72.5-77.8,72.5h-26.7V225.8z"/>
	<path class="st33" d="M975.5,265H866.8c0-17.5,0-35.1,0.1-52.6c-1.5,0-3-0.1-4.5-0.1c0-3.1-0.1-6.2-0.1-9.3
		c37.7-0.1,75.5-0.1,113.2-0.2C975.5,223.5,975.5,244.3,975.5,265z"/>
	<g>
		<path class="st32" d="M880.9,206.7c-0.2,6.7-0.2,13.6-0.2,20.5v7.9c0,8.9-0.7,14.4-2.5,18.6c-2.4,6.1-7.9,9.3-13.9,9.3
			c-3.5,0-6.3-1.2-7.6-4.1c0.2-2.9,2.3-4.6,5.1-4.6c2.2,0,3.9,1.1,5.9,3.4l2.2,2.5l-0.7,0.5l-0.5-0.1l0.1-0.7
			c1.7-1.9,2.2-5.2,2.2-10.5c0-6.1-0.3-17.2-0.6-42.8H880.9z M864.3,206.7h21.9v3.4l-9.8,1H874l-9.8-1V206.7z"/>
		<path class="st32" d="M885.2,248l6.9-1h1.2l6.7,1v3.4h-14.8V248z M904.7,206.5h6.4l15.3,44.9H916l-12-37.4l2.3-2.7l-13.2,40h-3.8
			L904.7,206.5z M897.3,234.3h18.3l1.4,3.8h-20.9L897.3,234.3z M909.1,248.1l7.9-1h3.8l8.6,1v3.3h-20.3V248.1z"/>
		<path class="st32" d="M932.5,210.1v-3.4h10.6v4.5h-1L932.5,210.1z M944.1,247l9.6,1v3.4h-21.2V248l9.6-1H944.1z M938,227.7
			c0-7,0-14-0.2-21h10.5c-0.2,6.9-0.2,13.8-0.2,21.3v2.1c0,7.3,0,14.4,0.2,21.4h-10.5c0.2-6.9,0.2-13.9,0.2-21V227.7z M943.2,227.2
			h8.1c6.9,0,9.3-3.9,9.3-8.6c0-5.5-3-8.2-8.9-8.2h-8.6v-3.7h10.7c10.6,0,16.6,4.3,16.6,11.4c0,5.3-4,10.6-15.3,11.3l0.1-0.7
			c9.4,0.4,12.2,3.6,13.5,10.6l2.1,10.7l-4.8-3l9.5,1v3.4c-2.8,0.7-4,0.9-6.9,0.9c-5.4,0-8.5-1.5-9.2-6.3l-1.6-8.6
			c-0.8-4.8-2.7-6.6-7.1-6.6h-7.6V227.2z"/>
	</g>
	<rect x="362.9" y="53.8" class="st33" width="114.3" height="45.1"/>
	<g>
		<path class="st32" d="M367.2,61.6l3.8-3.1l-1.6,10.4H365l0.3-10.4h32.8l0.2,10.4h-4.4l-1.6-10.4l3.7,3.1H367.2z M382.7,92.2
			l8.4,0.9v2.9h-18.9V93l8.3-0.9H382.7z M377.4,76.1c0-5.8,0-11.7-0.2-17.6h8.9c-0.2,5.7-0.2,11.6-0.2,17.6v2.2
			c0,5.9,0,11.8,0.2,17.6h-8.9c0.2-5.7,0.2-11.6,0.2-17.6V76.1z"/>
		<path class="st32" d="M401.5,61.3v-2.9h17.4v2.9l-8.1,0.9h-1.5L401.5,61.3z M410.8,92.2l8.1,0.9v2.9h-17.4V93l7.8-0.9H410.8z
			 M406,76.1c0-5.8,0-11.7-0.2-17.6h8.9c-0.2,5.7-0.2,11.6-0.2,17.6v1.7c0,6.4,0,12.3,0.2,18.1h-8.9c0.2-5.7,0.2-11.6,0.2-17.6V76.1
			z M410.3,78.3v-3.2h22.1v3.2H410.3z M423.7,61.3v-2.9h17.4v2.9l-8,0.9h-1.5L423.7,61.3z M433.2,92.2l8,0.9v2.9h-17.4V93l8-0.9
			H433.2z M428.1,76.1c0-5.8,0-11.7-0.2-17.6h8.9c-0.2,5.7-0.2,11.6-0.2,17.6v2.3c0,5.8,0,11.7,0.2,17.6h-8.9
			c0.2-5.7,0.2-11.6,0.2-18.1V76.1z"/>
		<path class="st32" d="M445.2,61.3v-2.9h8.9v3.7h-0.8L445.2,61.3z M454.1,92.2v3.7h-8.9V93l8-0.9H454.1z M449.8,76.1
			c0-5.8,0-11.7-0.2-17.6h8.9c-0.2,5.7-0.2,11.6-0.2,17.6V78c0,6.2,0,12.1,0.2,17.9h-8.9c0.2-5.7,0.2-11.6,0.2-17.6V76.1z
			 M468.3,58.5l3.8,3.1h-18v-3.1H474l0.4,9.8H470L468.3,58.5z M466.6,78.2h-12.6V75h12.6V78.2z M475.5,86.1l-0.4,9.8h-21.1v-3.1
			h19.1l-3.8,3.1l1.7-9.8H475.5z M464.9,75.9l0.9-5.6h3.1v12.5h-3.1l-0.9-5.9V75.9z"/>
	</g>
</g>
</svg>
