<?xml version="1.0" encoding="utf-8"?>
<!-- Generator: Adobe Illustrator 28.0.0, SVG Export Plug-In . SVG Version: 6.00 Build 0)  -->
<svg version="1.1" id="Layer_1" xmlns="http://www.w3.org/2000/svg" xmlns:xlink="http://www.w3.org/1999/xlink" x="0px" y="0px"
	 viewBox="0 0 1494.5 401" style="enable-background:new 0 0 1494.5 401;" xml:space="preserve">
<style type="text/css">
	.st0{fill:#5F259F;}
	.st1{fill:#FFFFFF;}
</style>
<g>
	<path class="st0" d="M1014,315.1v-72.8c0-17.9-6.7-26.9-23.5-26.9c-6.7,0-14.6,1.1-19,2.2V324c0,3.4-3.4,6.7-6.7,6.7h-25.8
		c-3.4,0-6.7-3.4-6.7-6.7V199.7c0-4.5,3.4-7.8,6.7-9c16.8-5.6,33.6-9,51.5-9c40.3,0,62.7,21.3,62.7,60.5v82.9c0,3.4-3.4,6.7-6.7,6.7
		h-15.7C1020.7,331.9,1014,324,1014,315.1z M1114.8,271.4l-1.1,10.1c0,13.4,9,21.3,23.5,21.3c11.2,0,21.3-3.4,32.5-9
		c1.1,0,2.2-1.1,3.4-1.1c2.2,0,3.4,1.1,4.5,2.2c1.1,1.1,3.4,4.5,3.4,4.5c2.2,3.4,4.5,7.8,4.5,11.2c0,5.6-3.4,11.2-7.8,13.4
		c-12.3,6.7-26.9,10.1-42.6,10.1c-17.9,0-32.5-4.5-43.7-13.4c-11.2-10.1-17.9-23.5-17.9-40.3v-43.7c0-34.7,22.4-56,60.5-56
		c37,0,58.2,20.2,58.2,56v26.9c0,3.4-3.4,6.7-6.7,6.7h-70.6L1114.8,271.4z M1113.7,246.7h42.6v-11.2c0-13.4-7.8-22.4-21.3-22.4
		c-13.4,0-21.3,7.8-21.3,22.4L1113.7,246.7z M1399.3,271.4l-1.1,10.1c0,13.4,9,21.3,23.5,21.3c11.2,0,21.3-3.4,32.5-9
		c1.1,0,2.2-1.1,3.4-1.1c2.2,0,3.4,1.1,4.5,2.2c1.1,1.1,3.4,4.5,3.4,4.5c2.2,3.4,4.5,7.8,4.5,11.2c0,5.6-3.4,11.2-7.8,13.4
		c-12.3,6.7-26.9,10.1-42.6,10.1c-17.9,0-32.5-4.5-43.7-13.4c-11.2-10.1-17.9-23.5-17.9-40.3v-43.7c0-34.7,22.4-56,60.5-56
		c37,0,58.2,20.2,58.2,56v26.9c0,3.4-3.4,6.7-6.7,6.7h-70.6L1399.3,271.4L1399.3,271.4z M1398.2,246.7h42.6v-11.2
		c0-13.4-7.8-22.4-21.3-22.4s-21.3,7.8-21.3,22.4V246.7z M739.5,331.9h15.7c3.4,0,6.7-3.4,6.7-6.7v-82.9c0-38.1-20.2-60.5-53.8-60.5
		c-10.1,0-21.3,2.2-28,4.5v-41.4c0-9-7.8-16.8-16.8-16.8h-15.7c-3.4,0-6.7,3.4-6.7,6.7v190.4c0,3.4,3.4,6.7,6.7,6.7h25.8
		c3.4,0,6.7-3.4,6.7-6.7V219.9c5.6-2.2,13.4-3.4,19-3.4c16.8,0,23.5,7.8,23.5,26.9v72.8C723.9,324,730.6,331.9,739.5,331.9
		L739.5,331.9z M908.7,237.8v41.4c0,34.7-23.5,56-62.7,56c-38.1,0-62.7-21.3-62.7-56v-41.4c0-34.7,23.5-56,62.7-56
		C885.2,181.8,908.7,203.1,908.7,237.8z M869.5,237.8c0-13.4-7.8-22.4-22.4-22.4s-22.4,7.8-22.4,22.4v41.4
		c0,13.4,7.8,21.3,22.4,21.3s22.4-7.8,22.4-21.3V237.8z M619.7,218.7c0,35.8-26.9,60.5-62.7,60.5c-9,0-16.8-1.1-24.6-4.5v50.4
		c0,3.4-3.4,6.7-6.7,6.7h-25.8c-3.4,0-6.7-3.4-6.7-6.7V147.1c0-4.5,3.4-7.8,6.7-9c16.8-5.6,33.6-9,51.5-9
		c40.3,0,68.3,24.6,68.3,62.7C619.7,191.9,619.7,218.7,619.7,218.7L619.7,218.7z M579.4,189.6c0-17.9-12.3-26.9-29.1-26.9
		c-10.1,0-16.8,3.4-16.8,3.4V240c6.7,3.4,10.1,4.5,17.9,4.5c16.8,0,29.1-10.1,29.1-26.9v-28L579.4,189.6L579.4,189.6z M1343.3,218.7
		c0,35.8-26.9,60.5-62.7,60.5c-9,0-16.8-1.1-24.6-4.5v50.4c0,3.4-3.4,6.7-6.7,6.7h-25.8c-3.4,0-6.7-3.4-6.7-6.7V147.1
		c0-4.5,3.4-7.8,6.7-9c16.8-5.6,33.6-9,51.5-9c40.3,0,68.3,24.6,68.3,62.7C1343.3,191.9,1343.3,218.7,1343.3,218.7L1343.3,218.7z
		 M1303,189.6c0-17.9-12.3-26.9-29.1-26.9c-10.1,0-16.8,3.4-16.8,3.4V240c6.7,3.4,10.1,4.5,17.9,4.5c16.8,0,29.1-10.1,29.1-26.9v-28
		L1303,189.6L1303,189.6z"/>
	<circle class="st0" cx="200.5" cy="200.5" r="200.5"/>
	<path class="st1" d="M291.5,148.2c0-7.8-6.7-14.6-14.6-14.6h-26.9l-61.6-70.6c-5.6-6.7-14.6-9-23.5-6.7l-21.3,6.7
		c-3.4,1.1-4.5,5.6-2.2,7.8l67.2,63.8H106.7c-3.4,0-5.6,2.2-5.6,5.6v11.2c0,7.8,6.7,14.6,14.6,14.6h15.7v53.8
		c0,40.3,21.3,63.8,57.1,63.8c11.2,0,20.2-1.1,31.4-5.6V314c0,10.1,7.8,17.9,17.9,17.9h15.7c3.4,0,6.7-3.4,6.7-6.7V165h25.8
		c3.4,0,5.6-2.2,5.6-5.6L291.5,148.2z M219.8,244.5c-6.7,3.4-15.7,4.5-22.4,4.5c-17.9,0-26.9-9-26.9-29.1v-53.8h49.3V244.5z"/>
</g>
</svg>
