<?xml version="1.0" encoding="utf-8"?>
<!-- Generator: Adobe Illustrator 28.0.0, SVG Export Plug-In . SVG Version: 6.00 Build 0)  -->
<svg version="1.1" id="Navbar" xmlns="http://www.w3.org/2000/svg" xmlns:xlink="http://www.w3.org/1999/xlink" x="0px" y="0px"
	 viewBox="0 0 1080 300" style="enable-background:new 0 0 1080 300;" xml:space="preserve">
<style type="text/css">
	.st0{fill:url(#SVGID_1_);}
	.st1{fill:url(#SVGID_00000003784830753049132440000005152154894008447123_);}
	.st2{fill:url(#SVGID_00000023982883213187858220000007105164903563912113_);}
	.st3{fill:url(#SVGID_00000060719103519141003930000002457636132895188651_);}
	.st4{fill:url(#SVGID_00000047768676576048415100000011303316978160080512_);}
	.st5{fill:url(#SVGID_00000037675973847026696660000008921043387875881399_);}
	.st6{fill:url(#SVGID_00000152976059276666294440000002972682821689473417_);}
	.st7{fill:url(#SVGID_00000099646526330146532630000009560188221341222569_);}
	.st8{fill:url(#SVGID_00000006677017006816619850000012298350126705072032_);}
	.st9{fill:url(#SVGID_00000180338282245408546230000002859526119177275813_);}
	.st10{fill:url(#SVGID_00000103257688790543549050000016364455568169764494_);}
	.st11{fill:url(#SVGID_00000057122998468339030300000005813312984633064597_);}
	.st12{fill:url(#SVGID_00000040539172875859822410000013125177249207102894_);}
	.st13{fill:url(#SVGID_00000149340159195809522030000006304884760201149627_);}
	.st14{fill:url(#SVGID_00000033356259692669075490000005068574620898524834_);}
	.st15{fill:url(#SVGID_00000165235268278828707660000016762910816898981300_);}
	.st16{fill:url(#SVGID_00000180332487922517609900000013154495960855996330_);}
	.st17{fill:url(#SVGID_00000072986129509398790530000007880917622859640467_);}
	.st18{fill:url(#SVGID_00000165934246408031864380000014728562929902963336_);}
	.st19{fill:url(#SVGID_00000129205272222669563490000010637179192357077416_);}
	.st20{fill:url(#SVGID_00000017504855639130174600000017063535225616418740_);}
	.st21{fill:url(#SVGID_00000070111142798537324380000014988656698338148760_);}
	.st22{fill:url(#SVGID_00000176750952536961725130000016198064018134509224_);}
	.st23{fill:url(#SVGID_00000047742082090306579750000008248257878716602499_);}
	.st24{fill:url(#SVGID_00000167370735019901639350000003140412964905685422_);}
	.st25{fill:url(#SVGID_00000145741266364520413260000002811355284873040062_);}
	.st26{fill:url(#SVGID_00000085241238747032709200000004212156165998513286_);}
	.st27{fill:url(#SVGID_00000183931737281130260190000012683382972986927527_);}
	.st28{fill:url(#SVGID_00000168077618320685862210000008372613221207765423_);}
	.st29{fill:url(#SVGID_00000003809103377031693620000001536766432011603077_);}
	.st30{fill:#FFCA05;}
	.st31{fill:url(#SVGID_00000043446947828009018270000008819705204097539502_);}
	.st32{fill:#F37A20;}
</style>
<g>
	<g>
		<linearGradient id="SVGID_1_" gradientUnits="userSpaceOnUse" x1="228.3685" y1="186.2512" x2="250.7468" y2="186.2512">
			<stop  offset="0.137" style="stop-color:#FFC905"/>
			<stop  offset="0.8675" style="stop-color:#F37A20"/>
		</linearGradient>
		<rect x="245.1" y="136.9" class="st0" width="22.4" height="98.7"/>
		<g>
			
				<linearGradient id="SVGID_00000002359585020497542660000005015153197788750494_" gradientUnits="userSpaceOnUse" x1="47.9039" y1="149.9283" x2="95.6105" y2="149.9283">
				<stop  offset="0.137" style="stop-color:#FFC905"/>
				<stop  offset="0.8675" style="stop-color:#F37A20"/>
			</linearGradient>
			
				<rect x="47.9" y="13.5" style="fill:url(#SVGID_00000002359585020497542660000005015153197788750494_);" width="22.4" height="272.9"/>
			
				<linearGradient id="SVGID_00000154426452786492654480000013335029050561929108_" gradientUnits="userSpaceOnUse" x1="26.3201" y1="24.6821" x2="329.8856" y2="24.6821">
				<stop  offset="0.137" style="stop-color:#FFC905"/>
				<stop  offset="0.8675" style="stop-color:#F37A20"/>
			</linearGradient>
			<path style="fill:url(#SVGID_00000154426452786492654480000013335029050561929108_);" d="M272.3,35.9c-77.9,0-155.8,0-233.6,0
				c-4.1,0-8.2,0-12.3,0c0-4.2,0-8.4,0-12.6c0-3.3,0-6.5,0-9.8c81.9,0.1,163.9,0.1,245.8,0.2C272.2,21.1,272.2,28.5,272.3,35.9z"/>
		</g>
		
			<linearGradient id="SVGID_00000036953098443738165230000016403537287820524210_" gradientUnits="userSpaceOnUse" x1="93.548" y1="275.1745" x2="320.7747" y2="275.1745">
			<stop  offset="0.137" style="stop-color:#FFC905"/>
			<stop  offset="0.8675" style="stop-color:#F37A20"/>
		</linearGradient>
		<path style="fill:url(#SVGID_00000036953098443738165230000016403537287820524210_);" d="M320.8,264v22.4h-227
			c-0.1-7.4-0.1-14.8-0.2-22.2C169.3,264.1,245,264.1,320.8,264z"/>
		
			<linearGradient id="SVGID_00000075160766413799694160000013880394866160631986_" gradientUnits="userSpaceOnUse" x1="267.4337" y1="164.1639" x2="289.812" y2="164.1639">
			<stop  offset="0.137" style="stop-color:#FFC905"/>
			<stop  offset="0.8675" style="stop-color:#F37A20"/>
		</linearGradient>
		
			<rect x="300" y="42" style="fill:url(#SVGID_00000075160766413799694160000013880394866160631986_);" width="22.4" height="244.4"/>
		
			<linearGradient id="SVGID_00000080183961695277030630000014189817721194317966_" gradientUnits="userSpaceOnUse" x1="102.7443" y1="75.0169" x2="267.4909" y2="75.0169">
			<stop  offset="7.768408e-03" style="stop-color:#FFC905"/>
			<stop  offset="0.1364" style="stop-color:#FDBB0A"/>
			<stop  offset="0.624" style="stop-color:#F68C1A"/>
			<stop  offset="0.8675" style="stop-color:#F37A20"/>
		</linearGradient>
		<path style="fill:url(#SVGID_00000080183961695277030630000014189817721194317966_);" d="M267.5,63.5c-0.1,7.7-0.2,15.4-0.3,23.1
			c-54.8-0.2-109.6-0.5-164.4-0.7c0-7.5,0-14.9,0-22.4H267.5z"/>
		
			<linearGradient id="SVGID_00000045605531747923953080000014060287755311552389_" gradientUnits="userSpaceOnUse" x1="102.7442" y1="139.0101" x2="183.2353" y2="139.0101">
			<stop  offset="0.137" style="stop-color:#FFC905"/>
			<stop  offset="0.8675" style="stop-color:#F37A20"/>
		</linearGradient>
		
			<rect x="102.7" y="63.5" style="fill:url(#SVGID_00000045605531747923953080000014060287755311552389_);" width="22.4" height="151.1"/>
		
			<linearGradient id="SVGID_00000049938264840040706280000018250740614361959578_" gradientUnits="userSpaceOnUse" x1="181.4611" y1="148.0852" x2="267.4909" y2="148.0852">
			<stop  offset="0.137" style="stop-color:#FFC905"/>
			<stop  offset="0.7259" style="stop-color:#F37A20"/>
		</linearGradient>
		<polygon style="fill:url(#SVGID_00000049938264840040706280000018250740614361959578_);" points="267.5,136.9 267.5,159.3 
			181.5,159.3 181.5,136.9 		"/>
		
			<linearGradient id="SVGID_00000033363732506513861360000003466161748104499887_" gradientUnits="userSpaceOnUse" x1="102.7442" y1="224.4172" x2="267.4909" y2="224.4172">
			<stop  offset="0.137" style="stop-color:#FFC905"/>
			<stop  offset="0.8675" style="stop-color:#F37A20"/>
		</linearGradient>
		<polygon style="fill:url(#SVGID_00000033363732506513861360000003466161748104499887_);" points="267.5,213.2 267.5,235.6 
			102.7,235.6 102.7,213.2 		"/>
		<g>
			<image style="overflow:visible;" width="73" height="31" xlink:href="DF2C67C7FAB9EC0.png"  transform="matrix(1 0 0 1 70 256)">
			</image>
		</g>
		
			<linearGradient id="SVGID_00000008863197442545187920000012090500255810351241_" gradientUnits="userSpaceOnUse" x1="299.9529" y1="32.4884" x2="306.7184" y2="32.4884">
			<stop  offset="0" style="stop-color:#F4CF20"/>
			<stop  offset="0.1825" style="stop-color:#FDE995"/>
			<stop  offset="0.6484" style="stop-color:#F4CF20"/>
			<stop  offset="0.999" style="stop-color:#F5891F"/>
		</linearGradient>
		<circle style="fill:url(#SVGID_00000008863197442545187920000012090500255810351241_);" cx="303.3" cy="32.5" r="3.4"/>
		
			<linearGradient id="SVGID_00000017509419125449626060000012803349559631727262_" gradientUnits="userSpaceOnUse" x1="307.7593" y1="32.4884" x2="314.5248" y2="32.4884">
			<stop  offset="0" style="stop-color:#F4CF20"/>
			<stop  offset="0.1825" style="stop-color:#FDE995"/>
			<stop  offset="0.6484" style="stop-color:#F4CF20"/>
			<stop  offset="0.999" style="stop-color:#F5891F"/>
		</linearGradient>
		<circle style="fill:url(#SVGID_00000017509419125449626060000012803349559631727262_);" cx="311.1" cy="32.5" r="3.4"/>
		
			<linearGradient id="SVGID_00000177480228744702808960000000826781312836154559_" gradientUnits="userSpaceOnUse" x1="315.5657" y1="32.4884" x2="322.3312" y2="32.4884">
			<stop  offset="0" style="stop-color:#F4CF20"/>
			<stop  offset="0.1825" style="stop-color:#FDE995"/>
			<stop  offset="0.6484" style="stop-color:#F4CF20"/>
			<stop  offset="0.999" style="stop-color:#F5891F"/>
		</linearGradient>
		<circle style="fill:url(#SVGID_00000177480228744702808960000000826781312836154559_);" cx="318.9" cy="32.5" r="3.4"/>
		
			<linearGradient id="SVGID_00000087371226911867734480000008792976182941228731_" gradientUnits="userSpaceOnUse" x1="299.9529" y1="24.682" x2="306.7184" y2="24.682">
			<stop  offset="0" style="stop-color:#F4CF20"/>
			<stop  offset="0.1825" style="stop-color:#FDE995"/>
			<stop  offset="0.6484" style="stop-color:#F4CF20"/>
			<stop  offset="0.999" style="stop-color:#F5891F"/>
		</linearGradient>
		<circle style="fill:url(#SVGID_00000087371226911867734480000008792976182941228731_);" cx="303.3" cy="24.7" r="3.4"/>
		
			<linearGradient id="SVGID_00000124869631886875766270000009740521970650761636_" gradientUnits="userSpaceOnUse" x1="307.7593" y1="24.682" x2="314.5248" y2="24.682">
			<stop  offset="0" style="stop-color:#F4CF20"/>
			<stop  offset="0.1825" style="stop-color:#FDE995"/>
			<stop  offset="0.6484" style="stop-color:#F4CF20"/>
			<stop  offset="0.999" style="stop-color:#F5891F"/>
		</linearGradient>
		<circle style="fill:url(#SVGID_00000124869631886875766270000009740521970650761636_);" cx="311.1" cy="24.7" r="3.4"/>
		
			<linearGradient id="SVGID_00000002358485895594601140000012124605631320117138_" gradientUnits="userSpaceOnUse" x1="315.5657" y1="24.682" x2="322.3312" y2="24.682">
			<stop  offset="0" style="stop-color:#F4CF20"/>
			<stop  offset="0.1825" style="stop-color:#FDE995"/>
			<stop  offset="0.6484" style="stop-color:#F4CF20"/>
			<stop  offset="0.999" style="stop-color:#F5891F"/>
		</linearGradient>
		<circle style="fill:url(#SVGID_00000002358485895594601140000012124605631320117138_);" cx="318.9" cy="24.7" r="3.4"/>
		
			<linearGradient id="SVGID_00000137822332064898559460000014032268153387021721_" gradientUnits="userSpaceOnUse" x1="299.9529" y1="16.8756" x2="306.7184" y2="16.8756">
			<stop  offset="0" style="stop-color:#F4CF20"/>
			<stop  offset="0.1825" style="stop-color:#FDE995"/>
			<stop  offset="0.6484" style="stop-color:#F4CF20"/>
			<stop  offset="0.999" style="stop-color:#F5891F"/>
		</linearGradient>
		<circle style="fill:url(#SVGID_00000137822332064898559460000014032268153387021721_);" cx="303.3" cy="16.9" r="3.4"/>
		
			<linearGradient id="SVGID_00000170959571542704587630000012890805505470750848_" gradientUnits="userSpaceOnUse" x1="307.7593" y1="16.8756" x2="314.5248" y2="16.8756">
			<stop  offset="0" style="stop-color:#F4CF20"/>
			<stop  offset="0.1825" style="stop-color:#FDE995"/>
			<stop  offset="0.6484" style="stop-color:#F4CF20"/>
			<stop  offset="0.999" style="stop-color:#F5891F"/>
		</linearGradient>
		<circle style="fill:url(#SVGID_00000170959571542704587630000012890805505470750848_);" cx="311.1" cy="16.9" r="3.4"/>
		
			<linearGradient id="SVGID_00000165943569579275047190000008731375349869922731_" gradientUnits="userSpaceOnUse" x1="315.5657" y1="16.8756" x2="322.3312" y2="16.8756">
			<stop  offset="0" style="stop-color:#F4CF20"/>
			<stop  offset="0.1825" style="stop-color:#FDE995"/>
			<stop  offset="0.6484" style="stop-color:#F4CF20"/>
			<stop  offset="0.999" style="stop-color:#F5891F"/>
		</linearGradient>
		<circle style="fill:url(#SVGID_00000165943569579275047190000008731375349869922731_);" cx="318.9" cy="16.9" r="3.4"/>
		
			<linearGradient id="SVGID_00000023283519301807806500000016200901476393430160_" gradientUnits="userSpaceOnUse" x1="280.7464" y1="48.4153" x2="293.6485" y2="48.4153">
			<stop  offset="0" style="stop-color:#F4CF20"/>
			<stop  offset="0.1825" style="stop-color:#FDE995"/>
			<stop  offset="0.6484" style="stop-color:#F4CF20"/>
			<stop  offset="0.999" style="stop-color:#F5891F"/>
		</linearGradient>
		<circle style="fill:url(#SVGID_00000023283519301807806500000016200901476393430160_);" cx="287.2" cy="48.4" r="6.5"/>
		
			<linearGradient id="SVGID_00000173154163234074961990000011771652472850065581_" gradientUnits="userSpaceOnUse" x1="280.7464" y1="93.0995" x2="293.6485" y2="93.0995">
			<stop  offset="0" style="stop-color:#F4CF20"/>
			<stop  offset="0.1825" style="stop-color:#FDE995"/>
			<stop  offset="0.6484" style="stop-color:#F4CF20"/>
			<stop  offset="0.999" style="stop-color:#F5891F"/>
		</linearGradient>
		<circle style="fill:url(#SVGID_00000173154163234074961990000011771652472850065581_);" cx="287.2" cy="93.1" r="6.5"/>
		
			<linearGradient id="SVGID_00000047033520339190289590000014975130729596424634_" gradientUnits="userSpaceOnUse" x1="280.7464" y1="143.3471" x2="293.6485" y2="143.3471">
			<stop  offset="0" style="stop-color:#F4CF20"/>
			<stop  offset="0.1825" style="stop-color:#FDE995"/>
			<stop  offset="0.6484" style="stop-color:#F4CF20"/>
			<stop  offset="0.999" style="stop-color:#F5891F"/>
		</linearGradient>
		<circle style="fill:url(#SVGID_00000047033520339190289590000014975130729596424634_);" cx="287.2" cy="143.3" r="6.5"/>
		
			<linearGradient id="SVGID_00000181055740930198024630000000381673267136380604_" gradientUnits="userSpaceOnUse" x1="280.8371" y1="193.7335" x2="293.7392" y2="193.7335">
			<stop  offset="0" style="stop-color:#F4CF20"/>
			<stop  offset="0.1825" style="stop-color:#FDE995"/>
			<stop  offset="0.6484" style="stop-color:#F4CF20"/>
			<stop  offset="0.999" style="stop-color:#F5891F"/>
		</linearGradient>
		<circle style="fill:url(#SVGID_00000181055740930198024630000000381673267136380604_);" cx="287.3" cy="193.7" r="6.5"/>
		
			<linearGradient id="SVGID_00000116931812848194279260000006993885601733564065_" gradientUnits="userSpaceOnUse" x1="280.7464" y1="249.8077" x2="293.6485" y2="249.8077">
			<stop  offset="0" style="stop-color:#F4CF20"/>
			<stop  offset="0.1825" style="stop-color:#FDE995"/>
			<stop  offset="0.6484" style="stop-color:#F4CF20"/>
			<stop  offset="0.999" style="stop-color:#F5891F"/>
		</linearGradient>
		<circle style="fill:url(#SVGID_00000116931812848194279260000006993885601733564065_);" cx="287.2" cy="249.8" r="6.5"/>
		
			<linearGradient id="SVGID_00000178916119699439412040000010408580907357458612_" gradientUnits="userSpaceOnUse" x1="241.802" y1="249.8077" x2="254.7041" y2="249.8077">
			<stop  offset="0" style="stop-color:#F4CF20"/>
			<stop  offset="0.1825" style="stop-color:#FDE995"/>
			<stop  offset="0.6484" style="stop-color:#F4CF20"/>
			<stop  offset="0.999" style="stop-color:#F5891F"/>
		</linearGradient>
		<circle style="fill:url(#SVGID_00000178916119699439412040000010408580907357458612_);" cx="248.3" cy="249.8" r="6.5"/>
		
			<linearGradient id="SVGID_00000019669417686512007000000009980950182464482999_" gradientUnits="userSpaceOnUse" x1="194.8132" y1="249.8077" x2="207.7153" y2="249.8077">
			<stop  offset="0" style="stop-color:#F4CF20"/>
			<stop  offset="0.1825" style="stop-color:#FDE995"/>
			<stop  offset="0.6484" style="stop-color:#F4CF20"/>
			<stop  offset="0.999" style="stop-color:#F5891F"/>
		</linearGradient>
		<circle style="fill:url(#SVGID_00000019669417686512007000000009980950182464482999_);" cx="201.3" cy="249.8" r="6.5"/>
		
			<linearGradient id="SVGID_00000146466104432314352190000000801246295650257057_" gradientUnits="userSpaceOnUse" x1="149.7645" y1="249.8077" x2="162.6666" y2="249.8077">
			<stop  offset="0" style="stop-color:#F4CF20"/>
			<stop  offset="0.1825" style="stop-color:#FDE995"/>
			<stop  offset="0.6484" style="stop-color:#F4CF20"/>
			<stop  offset="0.999" style="stop-color:#F5891F"/>
		</linearGradient>
		<circle style="fill:url(#SVGID_00000146466104432314352190000000801246295650257057_);" cx="156.2" cy="249.8" r="6.5"/>
		<image style="overflow:visible;" width="70" height="29" xlink:href="DF2C67C7FAB9EC7.png"  transform="matrix(1 0 0 1 71 258)">
		</image>
		
			<linearGradient id="SVGID_00000083084577253734164800000016021864449173402004_" gradientUnits="userSpaceOnUse" x1="78.2992" y1="244.3328" x2="84.5097" y2="244.3328">
			<stop  offset="0" style="stop-color:#F4CF20"/>
			<stop  offset="0.1825" style="stop-color:#FDE995"/>
			<stop  offset="0.6484" style="stop-color:#F4CF20"/>
			<stop  offset="0.999" style="stop-color:#F5891F"/>
		</linearGradient>
		<path style="fill:url(#SVGID_00000083084577253734164800000016021864449173402004_);" d="M82,242.4c2.4,5.4,2,10,2.2,10
			c0.2,0,1-4.9-1.2-9.9c-1.7-3.9-4.5-6.4-4.7-6.3C78.2,236.4,80.3,238.6,82,242.4z"/>
		
			<linearGradient id="SVGID_00000013909629779725320570000010325536870220372625_" gradientUnits="userSpaceOnUse" x1="129.43" y1="250.3174" x2="133.1617" y2="250.3174">
			<stop  offset="0" style="stop-color:#F4CF20"/>
			<stop  offset="0.1825" style="stop-color:#FDE995"/>
			<stop  offset="0.6484" style="stop-color:#F4CF20"/>
			<stop  offset="0.999" style="stop-color:#F5891F"/>
		</linearGradient>
		<path style="fill:url(#SVGID_00000013909629779725320570000010325536870220372625_);" d="M130.9,258.5c-0.2,0-1.9-3.8-1.4-8.3
			c0.6-4.8,3.4-8.2,3.6-8.1c0.2,0.1-1.8,3.1-2.5,8.1C130,255,131.1,258.5,130.9,258.5z"/>
		
			<linearGradient id="SVGID_00000008868130552117118880000017060596541931075252_" gradientUnits="userSpaceOnUse" x1="-49.8264" y1="660.274" x2="-46.6893" y2="660.274" gradientTransform="matrix(0.9866 0.1632 -0.1632 0.9866 284.4352 -396.8297)">
			<stop  offset="0" style="stop-color:#F4CF20"/>
			<stop  offset="0.1825" style="stop-color:#FDE995"/>
			<stop  offset="0.6484" style="stop-color:#F4CF20"/>
			<stop  offset="0.999" style="stop-color:#F5891F"/>
		</linearGradient>
		<path style="fill:url(#SVGID_00000008868130552117118880000017060596541931075252_);" d="M127.6,253.5c-0.2,0-1.1-3.4,0-7.1
			c1.1-3.9,3.9-6.3,4.1-6.2c0.2,0.1-1.9,2.4-3.2,6.4C127.4,250.5,127.8,253.5,127.6,253.5z"/>
		
			<linearGradient id="SVGID_00000075120952737760819320000014206719737237887642_" gradientUnits="userSpaceOnUse" x1="73.4781" y1="247.4882" x2="82.1145" y2="247.4882">
			<stop  offset="0" style="stop-color:#F4CF20"/>
			<stop  offset="0.1825" style="stop-color:#FDE995"/>
			<stop  offset="0.6484" style="stop-color:#F4CF20"/>
			<stop  offset="0.999" style="stop-color:#F5891F"/>
		</linearGradient>
		<path style="fill:url(#SVGID_00000075120952737760819320000014206719737237887642_);" d="M78.7,244.8c3.3,7.6,2.8,13.9,3,13.9
			c0.3,0,1.4-6.8-1.7-13.8c-2.4-5.4-6.3-8.9-6.5-8.7C73.3,236.4,76.3,239.5,78.7,244.8z"/>
	</g>
	<path class="st30" d="M503.8,236.6c-17.5,9.8-34.6,14.7-56.6,14.7c-51.5,0-86.6-33.8-86.6-87.8c0-52.4,33.4-87.2,89.1-87.2
		c17.5,0,34.7,3.8,49.2,11.7l1,38.6h-18.6L473,87.2l17,3.9v13.5c-12.6-10.3-23.9-14.4-36-14.4c-29,0-52.8,23.8-52.8,73.4
		c0,49.5,22.5,73.8,52.9,73.8c11.4,0,19.3-3,30.9-9.2l-17.4,15.2v-18.1c0-20.1-0.3-39.3-0.8-59.6h37.7c-0.5,19.9-0.8,39.7-0.8,60.3
		V236.6z M443.6,178.4v-12.8h74.2v12.8l-29.1,3.6h-13.9L443.6,178.4z"/>
	<path class="st30" d="M691.7,163.8c0,57.4-38.2,87.5-79.2,87.5s-79.3-29.2-79.3-87.5c0-57.4,38.5-87.5,79.3-87.5
		S691.7,105.4,691.7,163.8z M612.6,237.2c27.6,0,38.6-32.5,38.6-73.4c0-40.7-11-73.5-38.6-73.5s-38.7,32.8-38.7,73.5
		C573.9,204.7,585,237.2,612.6,237.2z"/>
	
		<linearGradient id="SVGID_00000169544046888701222530000002504349512015261618_" gradientUnits="userSpaceOnUse" x1="705.6203" y1="163.7889" x2="837.3391" y2="163.7889">
		<stop  offset="0.137" style="stop-color:#FFC905"/>
		<stop  offset="0.7259" style="stop-color:#F37A20"/>
	</linearGradient>
	<path style="fill:url(#SVGID_00000169544046888701222530000002504349512015261618_);" d="M705.6,93.5V80.7h80.2v12.8l-36.3,3.8
		h-8.3L705.6,93.5z M745,230.3v16.5h-39.3v-12.8l35.7-3.8H745z M725.2,80.7h39.4c-0.8,25.6-0.8,51.8-0.8,78V173
		c0,22,0,48.1,0.8,73.8h-39.4c0.8-25.6,0.8-51.8,0.8-73.9v-14.1C726,132.6,726,106.4,725.2,80.7z M837.3,198l-2.5,48.9H745v-14h81.3
		l-17.9,14l9.9-48.9H837.3z"/>
	<path class="st32" d="M850.4,93.5V80.7h39.3v16.5H886L850.4,93.5z M889.7,230.3v16.5h-39.3v-12.8l35.7-3.8H889.7z M870.7,158.8
		c0-25.9,0-52.1-0.8-78h39.4c-0.8,25.4-0.8,51.6-0.8,78v8.6c0,27.4,0,53.6,0.8,79.5H870c0.8-25.4,0.8-51.6,0.8-79.4V158.8z
		 M889.7,233h30.5c31.2,0,49.8-25.1,49.8-69.2c0-45-18.7-69.2-49-69.2h-31.3V80.7H925c52.4,0,84.9,31,84.9,82.7
		c0,53-35.8,83.4-89.5,83.4h-30.7V233z"/>
	<path d="M1053.7,278H928.8c0-20.2,0.1-40.3,0.1-60.5c-1.7-0.1-3.4-0.1-5.1-0.2c-0.1-3.5-0.1-7.1-0.2-10.6
		c43.4-0.1,86.7-0.1,130.1-0.2C1053.7,230.3,1053.7,254.2,1053.7,278z"/>
	<g>
		<path class="st32" d="M944.9,211c-0.2,7.7-0.2,15.6-0.2,23.6v9.1c0,10.3-0.8,16.5-2.9,21.3c-2.7,7-9,10.7-16,10.7
			c-4,0-7.2-1.3-8.8-4.7c0.2-3.4,2.7-5.3,5.9-5.3c2.5,0,4.5,1.2,6.8,3.9l2.5,2.8l-0.8,0.6l-0.6-0.1l0.1-0.8c2-2.2,2.6-6,2.6-12
			c0-7-0.3-19.8-0.7-49.1H944.9z M925.9,211h25.2v4l-11.3,1.2h-2.7l-11.2-1.2V211z"/>
		<path class="st32" d="M950,258.5l8-1.2h1.4l7.7,1.2v4H950V258.5z M972.4,210.8h7.3l17.6,51.6h-12l-13.8-42.9l2.7-3.1l-15.1,46
			h-4.4L972.4,210.8z M963.8,242.7h21.1l1.6,4.3h-24L963.8,242.7z M977.4,258.6l9-1.2h4.4l9.9,1.2v3.8h-23.4V258.6z"/>
		<path class="st32" d="M1004.3,214.9v-4h12.2v5.1h-1.1L1004.3,214.9z M1017.6,257.3l11.1,1.2v4h-24.4v-4l11.1-1.2H1017.6z
			 M1010.6,235.2c0-8,0-16.1-0.2-24.2h12c-0.2,8-0.2,15.9-0.2,24.5v2.4c0,8.4,0,16.5,0.2,24.6h-12c0.2-7.9,0.2-16,0.2-24.2V235.2z
			 M1016.6,234.6h9.3c7.9,0,10.6-4.5,10.6-9.8c0-6.3-3.4-9.5-10.2-9.5h-9.9V211h12.3c12.2,0,19,4.9,19,13.1c0,6.1-4.6,12.2-17.6,13
			l0.1-0.8c10.8,0.4,14,4.1,15.5,12.2l2.5,12.2l-5.5-3.5l10.9,1.2v4c-3.2,0.8-4.6,1-7.9,1c-6.2,0-9.7-1.8-10.6-7.3l-1.8-9.9
			c-0.9-5.5-3.1-7.6-8.2-7.6h-8.7V234.6z"/>
	</g>
	<rect x="349.5" y="35.2" width="131.4" height="51.8"/>
	<g>
		<path class="st32" d="M354.5,44.2l4.3-3.6l-1.8,12h-5l0.3-12h37.7l0.3,12h-5l-1.8-12l4.3,3.6H354.5z M372.3,79.3l9.7,1v3.3h-21.7
			v-3.3l9.5-1H372.3z M366.2,60.8c0-6.7,0-13.5-0.2-20.2h10.2C376,47.2,376,54,376,60.8v2.6c0,6.8,0,13.5,0.2,20.3H366
			c0.2-6.6,0.2-13.4,0.2-20.2V60.8z"/>
		<path class="st32" d="M393.8,43.9v-3.3h20.1v3.3l-9.3,1h-1.8L393.8,43.9z M404.6,79.3l9.3,1v3.3h-20.1v-3.3l9-1H404.6z M399,60.8
			c0-6.7,0-13.5-0.2-20.2h10.2c-0.2,6.6-0.2,13.4-0.2,20.2v2c0,7.3,0,14.1,0.2,20.8h-10.2C399,77,399,70.3,399,63.4V60.8z M404,63.3
			v-3.6h25.4v3.6H404z M419.4,43.9v-3.3h20.1v3.3l-9.2,1h-1.7L419.4,43.9z M430.3,79.3l9.2,1v3.3h-20.1v-3.3l9.2-1H430.3z
			 M424.5,60.8c0-6.7,0-13.5-0.2-20.2h10.2c-0.2,6.6-0.2,13.4-0.2,20.2v2.6c0,6.7,0,13.5,0.2,20.2h-10.2c0.2-6.6,0.2-13.4,0.2-20.8
			V60.8z"/>
		<path class="st32" d="M444.1,43.9v-3.3h10.2v4.3h-0.9L444.1,43.9z M454.3,79.3v4.3h-10.2v-3.3l9.2-1H454.3z M449.4,60.8
			c0-6.7,0-13.5-0.2-20.2h10.2c-0.2,6.6-0.2,13.4-0.2,20.2V63c0,7.1,0,13.9,0.2,20.6h-10.2c0.2-6.6,0.2-13.4,0.2-20.2V60.8z
			 M470.7,40.6l4.3,3.6h-20.7v-3.6h22.9l0.5,11.3h-5L470.7,40.6z M468.8,63.3h-14.4v-3.7h14.4V63.3z M479,72.3l-0.5,11.3h-24.2v-3.6
			h22l-4.3,3.6l1.9-11.3H479z M466.7,60.7l1-6.4h3.6v14.4h-3.6l-1-6.7V60.7z"/>
	</g>
</g>
</svg>
